<svg width="30" height="28" viewBox="0 0 30 28" fill="none" xmlns="http://www.w3.org/2000/svg">
<g clip-path="url(#clip0_109_932)">
<path d="M29.968 20.204C29.968 22.0229 29.9772 23.8419 29.9609 25.6608C29.9579 26.0396 29.9209 26.4372 29.7976 26.7906C29.6317 27.2673 29.265 27.6293 28.8019 27.8316C28.566 27.9331 28.2728 27.9331 28.005 27.9331C25.2419 27.9483 22.4787 27.9581 19.7156 27.9625C15.7672 27.9736 11.8188 27.9851 7.87042 27.997C7.2465 28 6.79506 27.6927 6.39941 27.2627C6.09506 26.9285 5.99767 26.5244 5.99919 26.0761C6.00274 25.2227 5.98346 24.3687 5.96977 23.5148C5.96977 23.3515 5.95049 23.1882 5.93375 23.026C5.93092 22.9827 5.91297 22.9417 5.88303 22.9103C5.36107 22.4788 5.11405 21.8673 4.83455 21.2831C4.04274 19.634 3.26463 17.9764 2.4855 16.3197C1.98637 15.2572 1.49046 14.1933 0.997751 13.1281C0.678863 12.4415 0.361497 11.7538 0.045652 11.0652C0.02172 11.0079 0.00947609 10.9463 0.00963757 10.8842C0.00507237 10.694 0.0213042 10.5029 0.00507237 10.3137C-0.0456521 9.7483 0.269347 9.34618 0.60768 8.95724C0.670071 8.88473 0.772534 8.84213 0.861302 8.79852C2.16999 8.16838 3.47953 7.53959 4.78992 6.91215C5.6847 6.48518 6.58201 6.0648 7.47831 5.64442C8.66628 5.08493 9.85459 4.52713 11.0432 3.97102C12.147 3.45075 13.2509 2.93284 14.355 2.4173C15.9001 1.69875 17.4523 0.997448 18.9908 0.262167C19.4631 0.0335452 19.9929 -0.0492496 20.5125 0.024342C21.1775 0.108012 21.567 0.518248 21.8405 1.07909C22.5293 2.49235 23.2212 3.9046 23.8999 5.32445C24.4071 6.38325 24.8946 7.45119 25.3891 8.51608C25.9106 9.63776 26.4331 10.7584 26.9474 11.8837C27.026 12.0566 27.1376 12.1042 27.3162 12.1032C27.8016 12.0997 28.2896 12.1174 28.7507 12.2878C29.335 12.5043 29.898 13.126 29.9057 13.8466C29.928 15.9662 29.967 18.0859 30 20.206L29.968 20.204ZM29.161 18.8075H6.76766V18.9915C6.76766 21.3431 6.76665 23.6946 6.76462 26.0462C6.76013 26.2095 6.80503 26.3703 6.89346 26.5076C7.16484 26.9295 7.50216 27.1826 8.05201 27.18C11.6469 27.1638 15.2417 27.1714 18.8365 27.1714C21.88 27.1714 24.9235 27.1714 27.967 27.1714C28.0806 27.1714 28.2104 27.1958 28.3048 27.1511C28.7243 26.9508 29.0687 26.675 29.1057 26.1618C29.1321 25.7916 29.1676 25.4204 29.1686 25.0498C29.1747 23.028 29.1717 21.0062 29.1712 18.9844C29.1707 18.9282 29.1666 18.8724 29.161 18.8075ZM29.194 14.9703C29.1666 14.5941 29.1691 14.233 29.1078 13.8836C29.0144 13.3578 28.5325 12.9901 27.9999 12.9851C27.652 12.9815 27.3045 12.9633 26.957 12.9612C24.6744 12.9491 22.3959 12.9323 20.1153 12.9308C18.45 12.9308 16.7847 12.9516 15.1189 12.9592C12.7048 12.9704 10.2908 12.9781 7.87701 12.9825C7.55339 12.9825 7.32919 13.127 7.12071 13.3405C6.66013 13.8121 6.78948 14.3993 6.76564 14.9703H29.194ZM18.7356 10.5155C18.9821 10.8482 19.2429 10.8888 19.601 10.7691C20.0169 10.6327 20.4065 10.4172 20.8107 10.2437C20.9442 10.1864 20.931 10.1134 20.8807 10.0054C20.7986 9.82842 20.7362 9.64182 20.652 9.46586C20.5728 9.30054 20.6063 9.20572 20.7808 9.13371C21.0065 9.04091 21.2221 8.92378 21.4656 8.80613L20.7555 7.27421L19.4138 7.94611C19.5229 8.19357 19.6213 8.41162 19.7181 8.63119C19.7739 8.761 19.779 8.86597 19.6167 8.93544C19.4199 9.02063 19.2352 9.1327 19.044 9.23006C18.7934 9.35785 18.5413 9.4836 18.2745 9.61545C18.3724 9.81068 18.4586 9.98309 18.552 10.1682L19.0638 9.93897C19.3631 9.80459 19.6603 9.66463 19.9642 9.54192C20.0194 9.51961 20.1026 9.56727 20.1731 9.58249C20.1447 9.67021 20.1397 9.78076 20.0823 9.84009C20.0017 9.92274 19.885 9.97497 19.778 10.0267C19.4326 10.1925 19.0851 10.3517 18.7356 10.5155ZM22.4826 7.21488C22.2934 6.89592 22.1276 6.6008 21.946 6.31378C21.7481 5.99787 21.4468 5.88884 21.1014 6.0217C20.7727 6.14746 20.4511 6.2935 20.1315 6.44157C19.7217 6.63173 19.7115 6.68294 19.9667 7.06732C19.9738 7.07797 19.9799 7.09369 19.99 7.09673C20.0438 7.11448 20.1102 7.15707 20.1518 7.14034C20.3446 7.06275 20.5307 6.96894 20.7184 6.8802C20.863 6.81174 20.969 6.83964 21.0405 6.99176C21.1318 7.18598 21.2252 7.38019 21.3327 7.56528C21.3586 7.61041 21.459 7.65757 21.5001 7.64084C21.8151 7.51457 22.1235 7.37309 22.4826 7.21488ZM22.9731 8.54447C22.8377 8.60532 22.7195 8.65603 22.5993 8.71181C22.1382 8.93037 21.6761 9.14791 21.2186 9.37103C21.1678 9.39588 21.1029 9.48867 21.1171 9.5262C21.1734 9.69506 21.2551 9.85581 21.3357 10.0373C21.7634 9.82335 22.1595 9.63167 22.5531 9.42884C22.9528 9.22093 23.0436 9.03026 22.9731 8.54447ZM17.7155 8.25188C18.2339 8.02014 18.7468 7.79905 19.2525 7.56224C19.6684 7.36752 19.6583 7.36295 19.464 6.95373C19.3986 6.81631 19.3306 6.79501 19.2043 6.8589C18.8442 7.04146 18.4764 7.2093 18.1223 7.402C17.7835 7.58658 17.6384 7.88982 17.7155 8.25188ZM17.851 8.6682C17.9281 8.83909 17.9925 9.00187 18.0767 9.154C18.095 9.18645 18.1959 9.2047 18.24 9.18696C18.4597 9.09314 18.6742 8.98767 18.8878 8.8827C19.3443 8.65299 19.3555 8.61039 19.0577 8.16923C19.041 8.14489 19.0186 8.12359 18.9948 8.0957L17.851 8.6682ZM21.5579 8.06274L21.809 8.62916C22.1357 8.48565 22.442 8.35837 22.7398 8.21284C22.7854 8.19052 22.827 8.07034 22.8073 8.02116C22.7355 7.86553 22.6545 7.71432 22.5648 7.56832L21.5579 8.06274Z" fill="black"/>
<path d="M7.53716 24.3454V22.8398H17.4873V24.3454H7.53716Z" fill="black"/>
<path d="M7.53614 21.8404V20.3424H14.2409V21.8404H7.53614Z" fill="black"/>
<path d="M15.1073 21.8419C15.1073 21.4012 15.1073 20.9839 15.1073 20.566C15.1073 20.4266 15.1697 20.349 15.3264 20.349C16.9354 20.3524 18.5444 20.3537 20.1534 20.3531C20.183 20.3558 20.2125 20.3602 20.2416 20.3662V21.8419H15.1073Z" fill="black"/>
</g>
<defs>
<clipPath id="clip0_109_932">
<rect width="30" height="28" fill="white"/>
</clipPath>
</defs>
</svg>
