<svg width="24" height="24" viewBox="0 0 24 24" fill="none" xmlns="http://www.w3.org/2000/svg">
<path d="M21.92 7.25002V7.38002L20.46 12.78C20.2875 13.421 19.9072 13.9866 19.3788 14.3883C18.8504 14.79 18.2037 15.0051 17.54 15H9.89001C9.139 15.0031 8.41417 14.7243 7.85871 14.2189C7.30326 13.7134 6.95759 13.018 6.89001 12.27L6.24001 4.91002C6.21748 4.6607 6.10226 4.4289 5.91711 4.26041C5.73195 4.09192 5.49034 3.99901 5.24001 4.00002H3.07001C2.80479 4.00002 2.55044 3.89467 2.3629 3.70713C2.17536 3.5196 2.07001 3.26524 2.07001 3.00002C2.07001 2.73481 2.17536 2.48045 2.3629 2.29292C2.55044 2.10538 2.80479 2.00002 3.07001 2.00002H5.24001C5.99101 1.99698 6.71585 2.27572 7.2713 2.78118C7.82676 3.28665 8.17242 3.98206 8.24001 4.73002V5.00002H19.93C20.2151 4.99779 20.4973 5.05652 20.7578 5.17228C21.0184 5.28805 21.2511 5.45816 21.4405 5.67124C21.6299 5.88431 21.7716 6.1354 21.856 6.4077C21.9404 6.67999 21.9657 6.96718 21.93 7.25002H21.92Z" fill="#464646"/>
<path d="M9.07001 22C10.4507 22 11.57 20.8807 11.57 19.5C11.57 18.1193 10.4507 17 9.07001 17C7.68929 17 6.57001 18.1193 6.57001 19.5C6.57001 20.8807 7.68929 22 9.07001 22Z" fill="#464646"/>
<path d="M17.07 22C18.4507 22 19.57 20.8807 19.57 19.5C19.57 18.1193 18.4507 17 17.07 17C15.6893 17 14.57 18.1193 14.57 19.5C14.57 20.8807 15.6893 22 17.07 22Z" fill="#464646"/>
</svg>
