<svg width="24" height="24" viewBox="0 0 24 24" fill="none" xmlns="http://www.w3.org/2000/svg">
<g clip-path="url(#clip0_109_545)">
<path d="M23.6 10.3L13.2 2.40002C12.5 1.90002 11.5 1.90002 10.7 2.40002L0.400004 10.3C-0.399996 10.9 4.41074e-06 12 1 12H2V18.1C2 20.2 3.8 22 6 22H8C8.60001 22 9 21.6 9 21V16.1C9 15 9.9 14 11 14H13C14.1 14 15 15 15 16.1V21C15 21.5 15.4 22 16 22H18C20.2 22 22 20.2 22 18.1V12H23C23.9 12 24.3 10.9 23.6 10.3Z" fill="#DB1B1B"/>
</g>
<defs>
<clipPath id="clip0_109_545">
<rect width="24" height="24" fill="white"/>
</clipPath>
</defs>
</svg>
