<svg width="62" height="62" viewBox="0 0 62 62" fill="none" xmlns="http://www.w3.org/2000/svg">
<circle cx="31" cy="31" r="31" fill="#DB1B1B"/>
<path d="M38.9167 17.75H37.3333C36.3833 17.75 35.75 18.3833 35.75 19.3333C35.75 20.2833 36.3833 20.9167 37.3333 20.9167H38.9167C40.6583 20.9167 42.0833 22.3417 42.0833 24.0833V25.825C42.0833 26.775 42.7167 27.4083 43.6667 27.4083C44.6167 27.4083 45.25 26.775 45.25 25.825V24.0833C45.25 20.6 42.4 17.75 38.9167 17.75Z" fill="white"/>
<path d="M43.6667 36.75C42.7167 36.75 42.0833 37.3833 42.0833 38.3333V39.9167C42.0833 41.6583 40.6583 43.0833 38.9167 43.0833H37.3333C36.3833 43.0833 35.75 43.7167 35.75 44.6667C35.75 45.6167 36.3833 46.25 37.3333 46.25H38.9167C42.4 46.25 45.25 43.4 45.25 39.9167V38.3333C45.25 37.3833 44.6167 36.75 43.6667 36.75Z" fill="white"/>
<path d="M24.6667 43.0833H23.0833C21.3417 43.0833 19.9167 41.6583 19.9167 39.9167V38.3333C19.9167 37.3833 19.2833 36.75 18.3333 36.75C17.3833 36.75 16.75 37.3833 16.75 38.3333V39.9167C16.75 43.4 19.6 46.25 23.0833 46.25H24.6667C25.6167 46.25 26.25 45.6167 26.25 44.6667C26.25 43.7167 25.6167 43.0833 24.6667 43.0833Z" fill="white"/>
<path d="M18.3333 27.25C19.2833 27.25 19.9167 26.6167 19.9167 25.6667V24.0833C19.9167 22.3417 21.3417 20.9167 23.0833 20.9167H24.6667C25.6167 20.9167 26.25 20.2833 26.25 19.3333C26.25 18.3833 25.6167 17.75 24.6667 17.75H23.0833C19.6 17.75 16.75 20.6 16.75 24.0833V25.6667C16.75 26.4583 17.3833 27.25 18.3333 27.25Z" fill="white"/>
<path d="M43.6667 30.4167H18.3333C17.3833 30.4167 16.75 31.05 16.75 32C16.75 32.95 17.3833 33.5834 18.3333 33.5834H43.6667C44.6167 33.5834 45.25 32.95 45.25 32C45.25 31.05 44.6167 30.4167 43.6667 30.4167Z" fill="white"/>
</svg>
